<?xml version="1.0" encoding="UTF-8" standalone="no"?>
<!-- Created with Inkscape (http://www.inkscape.org/) -->

<svg
   width="21.191584mm"
   height="24.103519mm"
   viewBox="0 0 21.191584 24.103519"
   version="1.1"
   id="svg1"
   xml:space="preserve"
   xmlns="http://www.w3.org/2000/svg"
   xmlns:svg="http://www.w3.org/2000/svg"><defs
     id="defs1" /><g
     id="layer1"
     transform="translate(-72.824281,-148.0189)"><g
       id="g59"
       transform="translate(-0.09549511)"><path
         style="opacity:0.98;fill:none;stroke:#ffffff;stroke-width:1.3;stroke-linecap:round;stroke-linejoin:round;stroke-dasharray:none;stroke-opacity:1"
         d="m 79.936396,165.34798 c 0.069,9.01149 11.29475,7.61108 10.96457,-1.14013"
         id="path30" /><path
         style="opacity:0.98;fill:none;stroke:#ffffff;stroke-width:1.3;stroke-linecap:round;stroke-linejoin:round;stroke-dasharray:none;stroke-opacity:1"
         d="m 75.665016,151.76915 c -5.46576,0.44261 0.7846,17.65825 7.06997,11.78329 1.10847,-1.03609 1.7739,-2.03343 2.35666,-3.30544"
         id="path31" /><ellipse
         style="opacity:0.98;fill:#ffffff;fill-opacity:1;stroke:none;stroke-width:3.62867;stroke-linecap:round;stroke-linejoin:round;stroke-dasharray:none;stroke-opacity:1"
         id="ellipse31"
         cx="71.148918"
         cy="150.43964"
         rx="1.4194664"
         ry="2.0355439"
         transform="matrix(0.99999616,-0.00277087,0.04835258,0.99883033,0,0)" /><path
         id="path32"
         style="opacity:0.98;fill:#ffffff;fill-opacity:1;stroke:#ffffff;stroke-width:0.231;stroke-linecap:round;stroke-linejoin:round;stroke-dasharray:none;stroke-opacity:1"
         d="m 80.313356,152.57592 c -0.81727,0.003 -1.6248,0.54747 -1.98903,1.67793 l 4.03645,-0.108 c -0.40289,-1.03452 -1.23016,-1.573 -2.04742,-1.56993 z m 2.06705,1.61127 c -4.18635,-0.0353 -6.45978,9.83773 0.35295,0.46664 z m -4.06176,0.0827 -0.37517,0.38603 c 2.45563,2.78951 9.376,-0.72025 0.37517,-0.38603 z m -0.39068,0.39326 c -3.84801,1.82197 -1.06139,5.60555 1.25471,4.1646 -0.004,0.003 -0.009,0.006 -0.0134,0.009 0.64316,-0.26945 1.27346,-0.56561 2.31097,-0.016 5.74828,-4.29321 -7.37405,-7.69539 -2.27738,-0.006 z m 4.82141,0 -1.27485,4.1522 c 2.3201,1.47635 5.13427,-2.32483 1.27485,-4.1522 z" /><path
         style="opacity:0.98;fill:none;stroke:#ffffff;stroke-width:1.831;stroke-linecap:round;stroke-linejoin:round;stroke-dasharray:none;stroke-opacity:1"
         d="m 90.823376,156.71438 c 0.002,2.25622 0.01,2.82884 -10e-4,4.74127"
         id="path33" /><path
         style="opacity:0.98;fill:none;stroke:#ffffff;stroke-width:1.831;stroke-linecap:round;stroke-linejoin:round;stroke-dasharray:none;stroke-opacity:1"
         d="m 93.195856,159.08317 c -2.25622,0.002 -2.82884,0.01 -4.74127,-0.001"
         id="path34" /><ellipse
         style="opacity:0.98;fill:#ffffff;fill-opacity:1;stroke:none;stroke-width:3.62867;stroke-linecap:round;stroke-linejoin:round;stroke-dasharray:none;stroke-opacity:1"
         id="ellipse34"
         cx="97.28595"
         cy="136.43808"
         rx="1.4194664"
         ry="2.0355439"
         transform="matrix(0.98909414,0.1472847,-0.10204397,0.99477989,0,0)" /><ellipse
         style="opacity:0.98;fill:#ffffff;fill-opacity:1;stroke:none;stroke-width:3.04255;stroke-linecap:round;stroke-linejoin:round;stroke-dasharray:none;stroke-opacity:1"
         id="ellipse35"
         cx="114.18869"
         cy="133.08159"
         rx="1.2294111"
         ry="1.6522989"
         transform="matrix(0.98141932,0.19187529,-0.20189765,0.97940663,0,0)" /></g></g></svg>
